<svg xmlns="http://www.w3.org/2000/svg" viewBox="0 0 260 230" role="img" aria-label="Monster illustration"><defs><linearGradient id="c15" x2=".5" y2="1"><stop stop-color="#d2b49a"/><stop offset="1" stop-color="#d2b49a" stop-opacity=".65"/></linearGradient></defs><ellipse cx="133" cy="204" rx="79" ry="10" fill="#000" opacity=".18"/><g fill="url(#c15)" stroke="#172238" stroke-width="5" stroke-linejoin="round" stroke-linecap="round"><path d="M78 134L37 112L23 133L57 145L29 165L73 161M173 131L218 109L235 133L202 144L232 165L181 164" fill="none" stroke-width="12"/><path d="M86 118L55 91M172 117L202 89" fill="none" stroke-width="14"/><path d="M63 103L26 85L26 44L48 65L63 39L81 75ZM195 100L181 73L204 37L214 65L236 43L233 83Z"/><path d="M69 124L101 97L161 96L191 127L176 171L90 172Z"/><path d="M107 119q11 -6 22 0" fill="none" stroke="#fff" opacity=".35"/><ellipse cx="112" cy="127" rx="8" ry="10" fill="#faffff" stroke-width="2"/><ellipse cx="115" cy="128" rx="4" ry="7" fill="#14243a" stroke="none"/><circle cx="116" cy="125" r="2" fill="#fff" stroke="none"/><path d="M125 143q9 6 16 -2" fill="none" stroke-width="3"/><path d="M110 148l9 8 7 -6" fill="#fff8" stroke="none"/></g><g fill="#d2b49a"><path d="M219 45l4 10 10 4-10 4-4 10-4-10-10-4 10-4Z"/><circle cx="39" cy="188" r="3"/></g></svg>