<svg xmlns="http://www.w3.org/2000/svg" viewBox="0 0 260 230" role="img" aria-label="Monster illustration"><defs><linearGradient id="c16" x2=".5" y2="1"><stop stop-color="#d2b49a"/><stop offset="1" stop-color="#d2b49a" stop-opacity=".65"/></linearGradient></defs><ellipse cx="133" cy="204" rx="79" ry="10" fill="#000" opacity=".18"/><g fill="url(#c16)" stroke="#172238" stroke-width="5" stroke-linejoin="round" stroke-linecap="round"><path d="M68 118Q139 58 193 112L207 159L189 191L164 189L159 157L119 160L109 192L82 191L75 158L42 152L34 121Z"/><path d="M47 125L64 55L79 114" fill="#eef3ff"/><path d="M111 92L129 142L113 168M158 91L169 145" fill="none"/><path d="M61 120q11 -6 22 0" fill="none" stroke="#fff" opacity=".35"/><ellipse cx="66" cy="128" rx="8" ry="10" fill="#faffff" stroke-width="2"/><ellipse cx="69" cy="129" rx="4" ry="7" fill="#14243a" stroke="none"/><circle cx="70" cy="126" r="2" fill="#fff" stroke="none"/><path d="M79 144q9 6 16 -2" fill="none" stroke-width="3"/><path d="M64 149l9 8 7 -6" fill="#fff8" stroke="none"/></g><g fill="#d2b49a"><path d="M219 45l4 10 10 4-10 4-4 10-4-10-10-4 10-4Z"/><circle cx="39" cy="188" r="3"/></g></svg>