<svg xmlns="http://www.w3.org/2000/svg" viewBox="0 0 260 230" role="img" aria-label="Monster illustration"><defs><linearGradient id="c3" x2=".5" y2="1"><stop stop-color="#5bd9ef"/><stop offset="1" stop-color="#5bd9ef" stop-opacity=".65"/></linearGradient></defs><ellipse cx="133" cy="204" rx="79" ry="10" fill="#000" opacity=".18"/><g fill="url(#c3)" stroke="#172238" stroke-width="5" stroke-linejoin="round" stroke-linecap="round"><path d="M129 81Q81 52 24 124L85 140L108 168L131 149L153 168L179 142L238 123Q182 54 129 81Z"/><path d="M119 144Q87 201 135 216Q120 185 153 157"/><path d="M103 77L108 48L128 76L152 48L156 80"/><path d="M110 103q11 -6 22 0" fill="none" stroke="#fff" opacity=".35"/><ellipse cx="115" cy="111" rx="8" ry="10" fill="#faffff" stroke-width="2"/><ellipse cx="118" cy="112" rx="4" ry="7" fill="#14243a" stroke="none"/><circle cx="119" cy="109" r="2" fill="#fff" stroke="none"/><path d="M128 127q9 6 16 -2" fill="none" stroke-width="3"/><path d="M113 132l9 8 7 -6" fill="#fff8" stroke="none"/></g><g fill="#5bd9ef"><path d="M219 45l4 10 10 4-10 4-4 10-4-10-10-4 10-4Z"/><circle cx="39" cy="188" r="3"/></g></svg>