<svg xmlns="http://www.w3.org/2000/svg" viewBox="0 0 260 230" role="img" aria-label="Monster illustration"><defs><linearGradient id="c30" x2=".5" y2="1"><stop stop-color="#a7bfd5"/><stop offset="1" stop-color="#a7bfd5" stop-opacity=".65"/></linearGradient></defs><ellipse cx="133" cy="204" rx="79" ry="10" fill="#000" opacity=".18"/><g fill="url(#c30)" stroke="#172238" stroke-width="5" stroke-linejoin="round" stroke-linecap="round"><ellipse cx="131" cy="143" rx="57" ry="45"/><circle cx="89" cy="62" r="19"/><circle cx="153" cy="61" r="19"/><circle cx="122" cy="97" r="46"/><path d="M83 134L55 169L83 178L107 154M171 135L206 163L187 183L158 157M103 167L88 195L117 195M146 169L154 196L183 189"/><path d="M91 129L131 118L170 143L151 172L110 167Z" fill="#fff5"/><path d="M104 88q11 -6 22 0" fill="none" stroke="#fff" opacity=".35"/><ellipse cx="109" cy="96" rx="8" ry="10" fill="#faffff" stroke-width="2"/><ellipse cx="112" cy="97" rx="4" ry="7" fill="#14243a" stroke="none"/><circle cx="113" cy="94" r="2" fill="#fff" stroke="none"/><path d="M122 112q9 6 16 -2" fill="none" stroke-width="3"/><path d="M107 117l9 8 7 -6" fill="#fff8" stroke="none"/></g><g fill="#a7bfd5"><path d="M219 45l4 10 10 4-10 4-4 10-4-10-10-4 10-4Z"/><circle cx="39" cy="188" r="3"/></g></svg>