<svg xmlns="http://www.w3.org/2000/svg" viewBox="0 0 260 230" role="img" aria-label="Monster illustration"><defs><linearGradient id="c32" x2=".5" y2="1"><stop stop-color="#a7bfd5"/><stop offset="1" stop-color="#a7bfd5" stop-opacity=".65"/></linearGradient></defs><ellipse cx="133" cy="204" rx="79" ry="10" fill="#000" opacity=".18"/><g fill="url(#c32)" stroke="#172238" stroke-width="5" stroke-linejoin="round" stroke-linecap="round"><path d="M115 112L64 62L38 131L68 110L81 146M147 113L205 58L232 134L197 109L180 151"/><path d="M116 97L131 72L149 98L152 143L133 179L111 143Z"/><path d="M111 155L76 191M151 151L183 192" fill="none" stroke-width="10"/><path d="M94 80L134 56L171 80L141 106L118 103Z"/><path d="M120 62L106 32M148 63L168 32" fill="none"/><path d="M115 72q11 -6 22 0" fill="none" stroke="#fff" opacity=".35"/><ellipse cx="120" cy="80" rx="8" ry="10" fill="#faffff" stroke-width="2"/><ellipse cx="123" cy="81" rx="4" ry="7" fill="#14243a" stroke="none"/><circle cx="124" cy="78" r="2" fill="#fff" stroke="none"/><path d="M133 96q9 6 16 -2" fill="none" stroke-width="3"/><path d="M118 101l9 8 7 -6" fill="#fff8" stroke="none"/></g><g fill="#a7bfd5"><path d="M219 45l4 10 10 4-10 4-4 10-4-10-10-4 10-4Z"/><circle cx="39" cy="188" r="3"/></g></svg>